<svg width="61" height="40" viewBox="0 0 61 40" fill="none" xmlns="http://www.w3.org/2000/svg">
<path d="M0.3125 38.6328C0.208333 38.4505 0.208333 38.2422 0.3125 38.0078C0.416667 37.7995 0.546875 37.5911 0.703125 37.3828C0.885417 37.2005 1.06771 37.0312 1.25 36.875C1.45833 36.7448 1.60156 36.6536 1.67969 36.6016L11.8359 32.5781L12.5391 31.875C12.513 31.4323 12.487 30.7552 12.4609 29.8438C12.4609 28.9062 12.4609 27.8646 12.4609 26.7188V19.4141C12.4609 18.2422 12.4609 17.2005 12.4609 16.2891C12.487 15.3776 12.513 14.7005 12.5391 14.2578C12.5391 14.1016 12.5651 13.8281 12.6172 13.4375C12.6953 13.0469 12.7604 12.6302 12.8125 12.1875C12.8906 11.7448 12.9557 11.3411 13.0078 10.9766C13.0859 10.5859 13.151 10.3125 13.2031 10.1562H4.41406C4.07552 10.1562 3.85417 10.0651 3.75 9.88281C3.67187 9.70052 3.65885 9.49219 3.71094 9.25781C3.76302 9.02344 3.85417 8.80208 3.98437 8.59375C4.14062 8.35938 4.28385 8.20312 4.41406 8.125C7.59115 8.35938 10.7422 8.125 13.8672 7.42188C14.4141 6.17188 15.1693 5.20833 16.1328 4.53125C17.0964 3.85417 18.1641 3.39844 19.3359 3.16406C20.5078 2.92969 21.7188 2.89062 22.9688 3.04688C24.2448 3.17708 25.4297 3.42448 26.5234 3.78906C27.6432 4.15365 28.6198 4.59635 29.4531 5.11719C30.3125 5.63802 30.9115 6.17188 31.25 6.71875C31.5885 7.23958 31.6276 7.73438 31.3672 8.20312C31.1068 8.64583 30.4167 8.9974 29.2969 9.25781C28.2031 9.49219 26.6276 9.59635 24.5703 9.57031C22.513 9.51823 19.8568 9.25781 16.6016 8.78906C15.9505 9.72656 15.4427 10.7943 15.0781 11.9922C14.7396 13.1901 14.5052 14.4531 14.375 15.7812C14.2708 17.1094 14.2448 18.4766 14.2969 19.8828C14.375 21.263 14.4922 22.6302 14.6484 23.9844C14.8307 25.3125 15.0391 26.6016 15.2734 27.8516C15.5078 29.0755 15.7292 30.1953 15.9375 31.2109C16.7187 31.3672 17.5 31.3932 18.2812 31.2891C19.0885 31.1589 19.8828 30.9635 20.6641 30.7031C21.4714 30.4427 22.2656 30.1562 23.0469 29.8438C23.8281 29.5052 24.6094 29.2057 25.3906 28.9453C26.1979 28.6849 26.9922 28.5026 27.7734 28.3984C28.5547 28.2682 29.349 28.2943 30.1562 28.4766C30.2865 28.8151 30.3125 29.2057 30.2344 29.6484C30.1562 30.0911 29.9089 30.3776 29.4922 30.5078C27.3828 30.8984 25.0911 31.3672 22.6172 31.9141C20.1693 32.4349 17.6693 33.0599 15.1172 33.7891C12.5911 34.5182 10.1172 35.3385 7.69531 36.25C5.27344 37.1615 3.04687 38.1901 1.01562 39.3359L0.3125 38.6328ZM16.6016 6.75781C19.5182 7.30469 21.8359 7.64323 23.5547 7.77344C25.2995 7.90365 26.5755 7.91667 27.3828 7.8125C28.1901 7.68229 28.6068 7.47396 28.6328 7.1875C28.6589 6.875 28.4115 6.5625 27.8906 6.25C27.3698 5.9375 26.6536 5.66406 25.7422 5.42969C24.8307 5.16927 23.8411 5.02604 22.7734 5C21.7057 4.94792 20.625 5.05208 19.5312 5.3125C18.4375 5.57292 17.4609 6.05469 16.6016 6.75781ZM48.7891 16.0156C48.7891 15.9896 48.6979 15.9766 48.5156 15.9766C48.3594 15.9766 48.2292 15.9896 48.125 16.0156C47.2135 16.3542 46.4714 16.6536 45.8984 16.9141C45.3516 17.1484 44.8828 17.3568 44.4922 17.5391C44.1016 17.7214 43.75 17.8906 43.4375 18.0469C43.125 18.1771 42.7734 18.3203 42.3828 18.4766C41.9922 18.6068 41.4974 18.75 40.8984 18.9062C40.3255 19.0365 39.5703 19.2057 38.6328 19.4141V32.9688C38.6328 33.4375 38.5286 33.6849 38.3203 33.7109C38.112 33.737 37.8776 33.6458 37.6172 33.4375C37.3828 33.2031 37.1484 32.9167 36.9141 32.5781C36.7057 32.2135 36.6016 31.888 36.6016 31.6016C36.5755 31.0026 36.5365 30.2865 36.4844 29.4531C36.4323 28.5938 36.3802 27.7214 36.3281 26.8359C36.3021 25.9245 36.263 25.026 36.2109 24.1406C36.1589 23.2552 36.1068 22.4609 36.0547 21.7578C36.0286 21.0547 36.0026 20.4948 35.9766 20.0781L35.9375 19.4141L32.5391 18.0469C32.487 18.0208 32.4609 17.9297 32.4609 17.7734C32.4609 17.6172 32.487 17.474 32.5391 17.3438C32.6693 17.0833 32.8776 16.875 33.1641 16.7188C33.4766 16.5365 33.8021 16.4062 34.1406 16.3281C34.4792 16.224 34.8047 16.1589 35.1172 16.1328C35.4557 16.0807 35.7292 16.0417 35.9375 16.0156C35.9375 15.625 35.9635 14.9479 36.0156 13.9844C36.0677 13.0208 36.1328 12.0052 36.2109 10.9375C36.2891 9.84375 36.3542 8.8151 36.4062 7.85156C36.4844 6.88802 36.5495 6.22396 36.6016 5.85938C36.6016 5.78125 36.6667 5.58594 36.7969 5.27344C36.9531 4.9349 37.1224 4.57031 37.3047 4.17969C37.513 3.78906 37.7344 3.42448 37.9688 3.08594C38.2031 2.7474 38.4115 2.51302 38.5938 2.38281C38.8021 2.2526 38.9714 2.29167 39.1016 2.5C39.2318 2.68229 39.2969 3.11198 39.2969 3.78906C39.2969 3.94531 39.2578 4.29688 39.1797 4.84375C39.1276 5.36458 39.0495 5.92448 38.9453 6.52344C38.8672 7.1224 38.7891 7.69531 38.7109 8.24219C38.6589 8.76302 38.6328 9.10156 38.6328 9.25781C38.6068 9.54427 38.5807 10.0391 38.5547 10.7422C38.5547 11.4193 38.5547 12.1615 38.5547 12.9688C38.5547 13.75 38.5547 14.4922 38.5547 15.1953C38.5807 15.8984 38.6068 16.3932 38.6328 16.6797C39.2839 16.8359 40.1432 16.862 41.2109 16.7578C42.2786 16.6536 43.3464 16.4453 44.4141 16.1328C45.5078 15.7943 46.5234 15.3906 47.4609 14.9219C48.3984 14.4271 49.0755 13.8932 49.4922 13.3203C49.987 12.5911 50.3646 11.7578 50.625 10.8203C50.8854 9.88281 51.1198 8.93229 51.3281 7.96875C51.5365 6.97917 51.7969 6.0026 52.1094 5.03906C52.4219 4.07552 52.8906 3.20313 53.5156 2.42188C54.2708 1.51042 55.013 0.885417 55.7422 0.546875C56.4974 0.208333 57.1875 0.0911458 57.8125 0.195313C58.4375 0.273438 58.9714 0.546875 59.4141 1.01563C59.8828 1.45833 60.1823 2.00521 60.3125 2.65625C60.4688 3.30729 60.4427 4.03646 60.2344 4.84375C60.0521 5.625 59.6224 6.40625 58.9453 7.1875C58.763 7.39583 58.4766 7.69531 58.0859 8.08594C57.7214 8.47656 57.2917 8.91927 56.7969 9.41406C56.3281 9.90885 55.8203 10.4297 55.2734 10.9766C54.7526 11.5234 54.2448 12.0443 53.75 12.5391C53.2552 13.0078 52.7995 13.4375 52.3828 13.8281C51.9922 14.2188 51.7057 14.5052 51.5234 14.6875C51.3672 16.25 51.3151 17.8776 51.3672 19.5703C51.4193 21.263 51.5495 22.9557 51.7578 24.6484C51.9661 26.3411 52.2266 28.0078 52.5391 29.6484C52.8516 31.2891 53.1771 32.8516 53.5156 34.3359H50.8594L48.7891 16.0156ZM53.5156 6.52344C53.4635 6.70573 53.3724 7.01823 53.2422 7.46094C53.112 7.90365 52.9688 8.38542 52.8125 8.90625C52.6823 9.40104 52.5521 9.88281 52.4219 10.3516C52.3177 10.7943 52.2396 11.1068 52.1875 11.2891C52.9688 10.8984 53.6849 10.3516 54.3359 9.64844C55.013 8.94531 55.599 8.20313 56.0938 7.42188C56.5885 6.64063 56.9922 5.8724 57.3047 5.11719C57.6432 4.36198 57.8516 3.72396 57.9297 3.20313C58.0339 2.68229 58.0078 2.33073 57.8516 2.14844C57.6953 1.96615 57.3828 2.05729 56.9141 2.42188C56.237 2.99479 55.5729 3.60677 54.9219 4.25781C54.2969 4.90885 53.8281 5.66406 53.5156 6.52344Z" fill="#BF1010"/>
</svg>
